<svg width="20" height="21" viewBox="0 0 20 21" fill="none" xmlns="http://www.w3.org/2000/svg">
<g id="Social Icons" clip-path="url(#clip0_642_9885)">
<path id="Vector" d="M10 0.131104C4.4772 0.131104 0 4.6083 0 10.1311C0 14.8207 3.2288 18.7559 7.5844 19.8367V13.1871H5.5224V10.1311H7.5844V8.8143C7.5844 5.4107 9.1248 3.8331 12.4664 3.8331C13.1 3.8331 14.1932 3.9575 14.6404 4.0815V6.8515C14.4044 6.8267 13.9944 6.8143 13.4852 6.8143C11.8456 6.8143 11.212 7.4355 11.212 9.0503V10.1311H14.4784L13.9172 13.1871H11.212V20.0579C16.1636 19.4599 20.0004 15.2439 20.0004 10.1311C20 4.6083 15.5228 0.131104 10 0.131104Z" fill="#242424"/>
</g>
<defs>
<clipPath id="clip0_642_9885">
<rect width="20" height="20" fill="white" transform="translate(0 0.131104)"/>
</clipPath>
</defs>
</svg>
