<svg width="61" height="45" viewBox="0 0 61 45" fill="none" xmlns="http://www.w3.org/2000/svg">
<g id="Group 15 4" clip-path="url(#clip0_563_14624)">
<path id="Vector" d="M58.4795 26.5706C58.5691 26.8073 58.7284 26.4325 58.6089 26.7284C58.4894 26.6988 58.3998 26.6594 58.4795 26.5706Z" fill="#404040"/>
<path id="Vector_2" d="M1.35035 20.0557C1.7333 20.4696 1.76276 20.9329 1.82168 21.4158C1.86095 21.6524 1.88059 21.9086 1.95915 22.1353C2.04752 22.362 2.17517 22.569 2.36173 22.7267C2.43047 22.8055 1.95915 22.8745 2.16535 23.0519C3.02944 23.6039 3.55968 24.7275 4.27648 25.7328L4.15865 25.792C4.29612 25.9792 4.71835 25.792 4.87545 25.9496C4.83618 26.0186 4.75762 26.0088 4.7478 26.1271C4.90491 25.9595 5.15039 26.2256 5.31732 26.1073C5.3566 26.2256 5.26822 26.3932 5.31732 26.5312L5.54316 26.3439C6.10286 25.9201 6.30906 26.7086 6.85894 26.5607C6.81966 26.61 6.76074 26.6494 6.78038 26.7086C7.6052 26.5706 8.46929 26.8466 9.31374 26.8268C9.26464 26.9156 9.21555 27.0831 9.24501 27.1915C9.32356 26.9254 9.58868 26.8958 9.8047 26.8564C9.87344 27.1521 10.2073 26.6297 10.443 26.817L10.4135 26.8761C10.6197 26.6002 10.6786 27.0634 10.8554 26.7184L10.9634 26.955C11.0714 26.5509 11.2285 27.1817 11.3954 26.9845V26.9057C11.5427 26.817 11.6114 27.0141 11.7587 26.955V27.0043C12.0926 26.8958 12.2791 27.1225 12.2693 26.8071C12.3872 27.0634 11.9551 26.9156 12.1319 27.2901C13.2022 26.9747 14.2823 26.9747 15.3526 26.8367C15.49 26.9451 15.5686 26.9747 15.6079 27.093C15.7061 27.024 16.0006 26.9845 16.0792 26.8071C16.0399 26.817 16.1676 26.955 16.2265 26.9648C16.4425 27.0535 16.3836 26.5903 16.6192 26.6987C16.5505 26.7973 16.5309 26.8958 16.58 27.0141C16.7273 26.748 16.9727 26.7381 17.1691 26.6199C17.1495 26.679 17.1004 26.7184 17.12 26.817C17.3066 26.5016 17.5521 26.7973 17.7288 26.5804L17.6895 26.7776C18.0627 26.9353 17.7092 26.3833 18.0234 26.4523C17.9645 26.5213 18.0038 26.5903 18.0038 26.6593C18.2001 26.2749 18.642 26.2946 18.8777 26.1172C18.8777 26.1468 18.8777 26.1961 18.8777 26.1961C19.1526 26.0876 19.4668 26.1073 19.7418 25.8905C19.8792 25.9398 19.8203 26.334 20.1051 26.1763C19.9971 25.8314 20.5666 25.8807 20.272 25.5357C20.5371 25.5258 20.979 25.516 21.0968 25.3484C21.0281 25.516 21.3619 25.7328 21.1655 25.8314L21.3914 25.9891C21.411 26.1369 21.2146 25.9891 21.3226 26.1566C21.4208 26.1073 21.686 25.8609 21.8038 25.8905C21.9216 25.6047 21.9511 25.1414 22.2358 24.9837C22.1475 25.171 22.4715 25.3287 22.3929 25.4273C22.4519 25.1612 22.501 24.8753 22.5501 24.5994C22.6384 24.5402 22.6875 24.8556 22.7857 24.7078C22.7366 24.6191 22.7857 24.5402 22.7857 24.4515C22.8446 24.4712 23.149 24.1953 23.3454 24.4909C23.4534 24.5994 23.2178 24.6388 23.3847 24.6979C23.5614 24.5994 23.5222 24.4909 23.6891 24.3924L23.7185 24.4318C23.8658 24.4219 23.9935 24.1263 23.7775 24.008C23.6891 24.0376 23.9051 24.1854 23.7382 24.1558C23.7284 23.9291 23.8953 23.7714 24.0524 23.6729C24.0229 23.7517 24.0818 23.8404 24.1015 23.939C24.1899 23.5645 24.3764 23.3575 24.5335 23.1012C24.4452 22.9534 24.6219 23.4166 24.5335 23.3673C24.9852 23.3673 24.9263 22.6774 25.3682 22.7661C25.3485 22.8154 25.1914 22.5986 25.2209 22.6281C25.378 22.5296 25.5449 22.7168 25.5842 22.569C25.6824 22.6774 25.6824 22.431 25.7708 22.3029C25.7708 22.1747 25.8395 22.3324 25.7609 22.4212C25.8199 22.1945 26.3305 21.5735 26.8116 21.5045C26.7527 21.4257 26.8509 21.0709 26.9491 21.0216L27.0276 21.2384C27.1749 21.3074 27.3026 21.0511 27.4204 21.2088C27.4597 20.8639 26.841 21.8199 26.9785 21.4947C27.1356 21.6228 27.1356 20.9822 27.2436 21.2778C27.4106 21.1694 27.4498 20.854 27.715 20.9427C27.6462 20.9427 27.7248 21.2976 27.8622 21.199C28.0881 21.0314 27.8819 21.0709 28.039 20.8935L28.1175 20.7456C28.0194 20.5485 28.3532 20.6569 28.147 20.4893C28.2648 20.6372 28.4612 20.2035 28.5987 20.5386L28.6969 20.8146C28.7951 20.7456 28.7362 20.4499 28.7656 20.3021C28.7951 20.3218 28.8442 20.3612 28.8638 20.4006C28.6871 19.9965 29.1387 20.3119 29.1191 19.9473C29.4137 19.9768 29.7083 19.6811 29.9243 19.8881C30.0519 19.691 30.1501 19.4742 30.3858 19.4742C30.3563 19.5333 30.3072 19.5629 30.3367 19.6516C30.5134 19.7206 30.5036 19.6023 30.592 19.484C30.592 19.553 30.9455 19.6122 31.1419 19.7009C31.2695 19.5136 31.1222 19.3165 31.0928 19.1686C31.407 19.5136 31.4954 18.7152 31.839 19.0011C31.7998 19.0799 31.6525 19.2968 31.839 19.346C32.1532 19.691 32.0551 18.9124 32.3889 19.0208L32.2023 18.7054C32.3987 18.8729 32.5264 18.3703 32.6147 18.735C32.6638 18.5773 32.9682 18.735 32.821 18.4196C33.3512 18.5477 33.8422 17.907 34.2938 18.4196C34.3429 18.3407 34.5099 18.3506 34.4313 18.1929C34.2742 18.0352 34.3233 18.3703 34.2447 18.252C34.2938 18.2224 34.284 18.1239 34.2742 18.0845C34.4313 18.1239 34.5491 18.114 34.5 18.4294C34.8634 18.5477 34.6473 17.7592 35.0794 17.7888C35.099 17.9366 35.1481 17.976 35.2561 17.9268L35.4132 17.6311C35.6783 17.6212 35.6391 17.907 35.7078 18.1436C35.8355 18.0647 36.0024 18.0352 36.0122 17.838L36.2479 18.0943C36.0711 17.907 36.3264 17.9268 36.3755 17.8479L36.3264 17.9268C36.3755 18.0253 36.513 17.9268 36.5915 17.8775C36.5326 17.7296 36.3657 17.7099 36.2675 17.6902C36.3068 17.5719 36.4246 17.5719 36.4835 17.4241C36.513 17.6705 36.7486 17.5424 36.8567 17.5325C36.9941 17.5522 36.945 17.2861 36.9843 17.2861C37.0138 17.4044 37.1905 17.2565 37.1316 17.4537C37.1021 17.5029 37.0039 17.3551 36.9647 17.4832C37.0629 17.5522 37.1021 17.7691 37.2396 17.5719C37.3378 17.4241 37.1021 17.1185 37.3771 17.2073C37.328 17.2762 37.3378 17.3748 37.3083 17.4734L37.5636 17.5424L37.5244 17.3255C37.5244 17.3255 37.5538 17.3945 37.5735 17.4241C37.5931 17.1875 37.9073 17.2861 37.9073 17.02C38.0153 16.9707 38.1822 17.1185 38.3001 17.1185L38.2804 17.1383C38.4375 17.2368 38.6045 17.1185 38.6928 16.951V17.0003C38.7714 17.0003 38.9383 16.9313 39.0071 16.7933C39.2231 16.9214 39.2133 17.6015 39.3704 17.2861C39.5569 17.2467 39.5962 16.8426 39.498 16.7144C39.8613 16.8032 40.1952 16.3793 40.5683 16.675C40.6076 16.5765 40.5683 16.5272 40.6567 16.468C41.1771 16.4878 41.6975 16.0541 42.159 16.4483C42.0216 16.5567 42.1688 16.6652 42.1885 16.7933C42.2867 16.5863 42.3554 16.9806 42.3652 16.6455C42.3358 16.4483 42.3358 16.3498 42.1787 16.2906C42.4732 16.1526 42.9347 16.1132 43.1213 16.2808C43.0329 16.2019 43.0919 16.1329 43.1508 16.0639C43.1508 16.3793 43.3864 16.4188 43.5435 16.2906V16.0935L43.681 16.2808C43.7399 16.2118 43.7301 15.8767 43.9069 16.0442C43.9167 16.1132 43.9363 16.1921 43.9658 16.2414C44.1327 16.0738 44.3684 15.788 44.5746 15.9457L44.7415 16.2216C44.82 16.1921 44.9575 16.0147 44.8102 15.9358C45.1441 16.1034 45.3601 16.1132 45.4681 16.3596C46.018 15.7387 46.8723 15.7584 47.54 15.8175L47.5105 15.9555C47.6873 16.1034 47.6185 15.7091 47.7363 15.8175C47.6676 15.9457 47.8542 16.1231 47.7069 16.2808C47.9524 16.4483 48.0506 16.0541 48.2273 16.0048C48.2666 15.8175 48.08 16.1132 48.1389 15.8767C48.1782 15.8077 48.4826 16.0541 48.5513 15.7683C48.6103 15.8865 48.5317 16.0935 48.4924 16.2019L48.6594 16.0738C48.8165 16.4188 48.1684 16.6356 48.3353 17.0594L48.4826 17.0298C48.5808 17.3354 48.0898 17.3354 48.4237 17.4635C48.5808 17.3354 48.7575 16.9313 48.6299 16.7933C48.9539 16.744 48.8459 16.1231 49.1994 16.1921C49.278 16.3695 48.9147 16.1921 48.9539 16.4385C49.0914 16.6947 49.2976 16.3596 49.4351 16.4582C49.2878 16.3301 49.4645 16.0639 49.5725 16.0245C49.7296 16.1822 49.4154 16.2808 49.6707 16.3399C49.7395 16.1822 49.9849 16.0935 49.7984 15.9457C49.9457 15.5908 50.0537 16.0837 50.2402 15.8175C50.2795 16.0935 49.8769 16.3793 50.1421 16.5567C50.1421 16.2906 50.5446 16.2808 50.4563 15.8767C50.5545 15.9752 50.5348 16.1724 50.4268 16.3103C50.5545 16.4976 50.8981 15.9358 50.849 16.4385L50.9571 16.1921C50.9865 16.2808 51.0454 16.3596 51.0945 16.5173C51.232 16.5469 51.6149 16.2611 51.5167 16.6455C51.5658 16.606 51.8801 16.7243 51.8211 16.4188C51.664 16.2019 51.5462 16.5567 51.5266 16.1724C51.5953 16.4878 51.8211 16.2019 51.9586 16.1428L51.939 16.2906C52.0175 16.2512 52.1746 16.3301 52.2532 16.1822C52.1746 16.2512 52.1746 16.3596 52.2237 16.4089L52.3612 16.2019C52.6754 16.1724 52.3121 16.606 52.6067 16.6257L52.3514 16.744C52.4103 16.7243 52.4398 16.951 52.587 16.9214C52.6951 16.7342 52.862 16.5173 52.9602 16.3793C53.1467 16.3399 52.9602 16.6257 53.1762 16.4779C53.0878 16.537 52.9896 16.5863 52.9013 16.6553C52.8522 16.7144 52.9307 17.0298 53.1173 17.0988C53.2646 17.0791 53.569 16.8623 53.402 16.675C53.51 16.7144 53.5984 16.882 53.4708 17.0003C53.7261 17.02 53.5199 16.7736 53.7653 16.7243C53.7948 16.882 53.9716 17.1678 54.0403 17.4142L53.7064 17.6606L53.8341 17.7099C53.5591 17.907 53.8341 17.9366 53.6279 18.183C53.6966 18.252 53.8341 18.2126 53.9519 18.183C53.893 17.6212 54.5018 17.7198 54.6098 17.296C55.032 17.365 54.3643 18.3506 55.0418 17.9268C55.0418 17.7986 55.3659 17.5916 55.0811 17.5916C55.2873 17.7493 55.4444 17.2664 55.6212 17.5916C55.3462 17.6311 55.6114 18.1042 55.2088 18.1633C55.2971 18.045 55.1106 17.976 55.0418 17.9957C55.0517 18.1929 54.8258 18.3604 55.0418 18.4886C55.1891 18.528 55.3659 18.6364 55.4641 18.4196C55.5819 18.2027 55.2481 18.321 55.4641 18.1534C55.7783 18.2421 55.6212 18.597 55.9649 18.2914C55.7783 18.2126 55.8667 17.9662 55.9649 17.8282L56.2202 17.8676L56.0925 17.9859C56.3478 18.2914 56.3478 17.7986 56.6522 18.0352L56.6031 18.4097C56.3773 18.5773 56.2202 18.0155 56.0238 18.4294C56.2103 18.5674 56.4165 18.4097 56.5246 18.6561C56.4656 18.6561 56.4067 18.6265 56.338 18.6265C56.3969 18.6955 56.1023 19.2376 56.5736 19.1489C56.7897 19.1489 56.7111 19.0504 56.8191 18.9124C57.153 19.1095 57.3592 19.0504 57.5654 19.1982C57.3003 19.4052 57.86 19.5432 57.4279 19.5924C57.4868 19.346 57.0253 19.0109 56.7308 19.1785C56.5933 19.5727 56.5344 18.9518 56.23 19.2179C56.4558 19.4052 56.2005 19.7009 56.0729 19.9275C56.122 19.9867 56.2398 19.9473 56.3085 19.9473C56.4853 19.7797 56.4067 19.7206 56.5638 19.5234C56.7799 19.7699 57.0941 19.8684 57.3788 19.8487C57.3788 20.0163 57.1824 20.1542 57.0744 20.0852C57.3788 20.3218 57.6734 20.6175 57.8207 20.9624C57.9876 20.5288 58.1349 21.2384 58.3018 20.9132C58.2527 20.6963 58.3607 20.3711 58.5669 20.3612C58.6259 20.4893 58.4295 20.4598 58.4 20.5583C58.675 20.5583 58.2724 20.9723 58.6455 20.9033C58.3215 20.6766 58.2135 21.13 57.9287 21.2483C58.2135 21.3468 57.7421 21.3665 57.8894 21.5637C58.184 21.6524 58.4589 21.8495 58.6357 22.0663C58.5473 22.5099 59.0481 22.845 59.1463 23.1604C59.0579 23.3673 58.6946 23.3871 58.6946 23.5645C58.7633 23.7517 58.999 23.2983 58.9499 23.6335H58.8713C58.9794 23.6926 58.8321 24.1953 59.3132 24.1558H58.9303C58.9106 24.2248 58.999 24.2544 59.0481 24.284C58.9303 24.3135 58.8321 24.4022 58.7437 24.3431C58.5277 24.5796 58.8615 24.6881 58.9106 24.8753L59.107 24.7078C59.3329 25.0035 59.1954 25.2597 59.2837 25.5751L59.0677 25.5948L59.215 25.7722C58.999 25.7525 58.8812 25.9299 59.0677 26.0186C58.8812 25.8708 58.6848 25.7328 58.4982 25.6047C58.616 25.4568 58.7732 25.7131 58.9794 25.6047C59.1659 25.5061 59.0677 25.2203 58.8419 25.2104C58.8419 25.3189 58.891 25.3189 58.9794 25.3977C58.6848 25.4766 58.6651 25.309 58.4491 25.2696C58.4688 25.3189 58.4 25.4174 58.4982 25.4076C58.3313 25.3189 58.2822 25.2203 58.2429 25.0527C58.3804 25.1513 58.4098 24.9542 58.508 24.9837C58.2429 25.0232 58.1251 24.8753 58.1545 24.6388C58.4295 24.4022 57.8698 24.284 57.86 24.0376C58.1447 24.0376 58.4 24.1066 58.5571 24.2347C58.6357 24.0376 58.4884 24.0573 58.5571 23.8601C58.3411 23.8404 58.0269 23.8897 57.8403 23.7419L58.0269 23.663C57.8698 23.5152 57.5948 23.6335 57.5654 23.3871C57.4574 23.0027 57.2904 22.6084 57.1333 22.3423L57.2905 22.224C56.8289 22.3226 56.8191 21.8495 56.5442 21.7805C56.4165 21.3665 55.8372 21.3074 55.9354 20.9132C55.6114 20.7555 55.3168 20.6076 55.032 20.4499C54.7276 20.3218 54.4429 20.1641 54.1581 19.9374L54.4036 19.7501C54.1876 19.8684 54.4036 19.553 54.276 19.5333C54.3054 19.7994 53.9716 19.7206 53.8144 19.8388C53.6279 19.4939 53.1467 19.5234 52.8031 19.6319L52.862 19.4446C52.4594 19.7009 52.2728 19.2475 51.9193 19.0996C51.8997 19.0109 51.8899 18.8138 51.7819 18.8039C51.4971 19.0602 51.4087 19.0109 51.0847 19.1292C50.8785 19.0799 50.5643 18.9419 50.3777 18.7744C49.5136 19.0602 48.7575 18.6758 47.8935 18.8828L47.8542 18.6462C47.0195 19.0799 46.0376 18.6167 45.3405 18.8927L45.3994 18.4886C45.1735 18.3703 44.8986 18.6068 44.9673 18.8828C44.7415 18.7547 44.4273 19.1095 44.28 18.7842C44.0541 18.7251 44.0149 18.9814 43.8381 19.0504C43.3766 18.9222 43.2097 18.9814 42.7973 19.0996H42.9053C42.9446 19.0208 42.9347 18.8532 42.8267 18.8335C42.6795 18.9616 42.2376 18.7842 42.4438 19.2475C41.9626 19.0109 41.4324 19.6023 40.9415 19.2869C41.0004 19.415 40.8924 19.4545 40.8531 19.5432C40.4603 19.6122 40.0086 19.4249 39.7337 19.691C39.6551 19.6417 39.7926 19.4545 39.6355 19.4643C39.5471 19.5333 39.6649 19.6319 39.5569 19.7206C38.9776 20.0852 38.2215 19.7206 37.6618 19.9177C36.6995 20.4006 35.6194 20.5485 34.6768 20.8935L34.6571 20.7949C34.4509 21.2384 33.7931 20.6766 33.7145 21.2877C33.6065 21.2286 33.4199 21.3468 33.4101 21.1497C33.2432 21.475 32.6246 21.1694 32.3791 21.6129C32.4184 21.6129 32.4282 21.5834 32.4478 21.5341C32.006 21.475 31.7998 21.8692 31.3481 21.8495C31.3677 21.7904 31.4266 21.7411 31.407 21.6425C31.191 21.5341 31.2204 22.1649 30.9553 21.7706C30.8767 21.8101 30.9848 22.0072 31.0339 21.9776C30.1403 22.1649 29.4039 22.845 28.7067 23.3871C28.0194 23.4758 28.2747 22.7365 28.0095 23.2885C27.9212 23.2294 28.0783 23.456 28.0194 23.3772C27.931 23.594 27.4891 23.1111 27.5088 23.3969C27.715 23.6039 27.5284 23.5743 27.6168 23.7222C27.1847 23.7813 26.9883 23.6433 26.8803 23.9883L26.8018 23.8601C26.841 24.3628 26.2224 24.5994 26.2028 25.1907C24.1506 26.679 22.118 27.6548 19.9381 28.3053C17.7583 28.7784 15.6079 29.3303 13.3102 29.1726C12.7603 28.7981 12.7308 28.8178 12.1417 28.9656C12.1613 28.9065 12.2006 28.8868 12.1613 28.8276C12.1319 29.1529 11.7489 28.8572 11.69 29.1628C10.8455 29.0839 10.0502 29.1135 9.15663 29.0051C9.30392 28.9952 9.40211 28.7389 9.23519 28.7389L9.02898 28.9163L9.00935 28.8276C8.89151 28.8572 8.74423 28.9952 8.84242 29.1135C7.69357 29.0938 6.56436 28.7192 5.49406 28.1771C4.42377 27.635 3.42221 26.9254 2.45993 26.1073C2.293 25.8412 2.02788 25.585 1.76276 25.3189C1.51728 25.033 1.23252 24.7571 1.02632 24.4811C0.348794 22.4803 0.496082 20.8442 0.319336 19.0898C0.319336 19.0898 1.14415 19.3953 1.31108 20.0557H1.35035Z" fill="#404040"/>
<path id="Vector_3" d="M58.4202 26.2849C58.5776 26.2257 58.6465 26.0383 58.8728 26.1665C58.7252 26.1961 58.5579 26.2948 58.4202 26.2849Z" fill="#404040"/>
<path id="Vector_4" d="M58.4301 21.1807C58.4301 21.1807 58.4301 21.081 58.45 21.0511C58.5 21.101 58.65 21.0711 58.61 21.1707C58.56 21.1209 58.5 21.1707 58.4301 21.1907V21.1807Z" fill="#404040"/>
<path id="Vector_5" d="M57.6249 20.0458C57.743 19.9571 58.0381 20.105 58.1759 20.2234L57.6249 20.0458Z" fill="#404040"/>
<path id="Vector_6" d="M57.0456 18.7154C57.0257 18.5477 57.0954 18.5181 57.2248 18.6167C57.185 18.6858 57.1153 18.6759 57.0456 18.7154Z" fill="#404040"/>
<path id="Vector_7" d="M56.7716 18.9126C56.682 18.8435 56.692 18.7449 56.7019 18.6462C56.6322 18.7449 56.9508 18.7449 56.7716 18.9126Z" fill="#404040"/>
<path id="Vector_8" d="M54.5451 17.099C54.4754 17.0792 54.2961 17.1286 54.2961 16.951C54.3161 17.0792 54.6745 16.9313 54.5451 17.099Z" fill="#404040"/>
<path id="Vector_9" d="M53.2667 16.823C53.2667 16.823 53.2268 16.7638 53.1671 16.7934C53.1173 16.7046 53.2268 16.6356 53.2965 16.6455L53.2766 16.8329L53.2667 16.823Z" fill="#404040"/>
<path id="Vector_10" d="M32.0851 18.8741L32.185 18.7645L32.215 18.904L32.0851 18.8741Z" fill="#404040"/>
<path id="Vector_11" d="M24.0459 23.3586C23.996 23.4981 23.906 23.2789 23.886 23.2689C23.966 23.2091 23.946 23.4383 24.0459 23.3586Z" fill="#404040"/>
<path id="Vector_12" d="M19.9779 25.7821L20.0078 25.7722L20.0775 26.0583L19.9779 25.7821Z" fill="#404040"/>
<path id="Vector_13" d="M59.4614 10.8008C59.551 11.0375 59.7103 10.6627 59.5909 10.9586C59.4714 10.929 59.3818 10.8895 59.4614 10.8008Z" fill="#404040"/>
<path id="Vector_14" d="M2.33278 4.28586C2.71573 4.69981 2.74518 5.16305 2.8041 5.646C2.84338 5.88255 2.86301 6.13881 2.94157 6.3655C3.02994 6.59219 3.15759 6.79917 3.34416 6.95687C3.41289 7.03572 2.94157 7.10471 3.14777 7.28212C4.01186 7.83407 4.5421 8.95767 5.2589 9.96299L5.14107 10.0221C5.27854 10.2094 5.70077 10.0221 5.85788 10.1798C5.8186 10.2488 5.74005 10.239 5.73023 10.3572C5.88733 10.1897 6.13281 10.4558 6.29974 10.3375C6.33902 10.4558 6.25064 10.6234 6.29974 10.7613L6.52558 10.5741C7.08528 10.1503 7.29148 10.9387 7.84136 10.7909C7.80208 10.8402 7.74317 10.8796 7.7628 10.9387C8.58762 10.8008 9.45171 11.0767 10.2962 11.057C10.2471 11.1457 10.198 11.3133 10.2274 11.4217C10.306 11.1556 10.5711 11.126 10.7871 11.0866C10.8559 11.3823 11.1897 10.8599 11.4254 11.0472L11.3959 11.1063C11.6021 10.8303 11.661 11.2936 11.8378 10.9486L11.9458 11.1852C12.0538 10.7811 12.2109 11.4118 12.3778 11.2147V11.1359C12.5251 11.0472 12.5939 11.2443 12.7411 11.1852V11.2344C13.075 11.126 13.2616 11.3527 13.2517 11.0373C13.3696 11.2936 12.9375 11.1457 13.1143 11.5203C14.1846 11.2049 15.2647 11.2049 16.335 11.0669C16.4725 11.1753 16.551 11.2049 16.5903 11.3231C16.6885 11.2541 16.9831 11.2147 17.0616 11.0373C17.0223 11.0472 17.15 11.1852 17.2089 11.195C17.4249 11.2837 17.366 10.8205 17.6017 10.9289C17.5329 11.0275 17.5133 11.126 17.5624 11.2443C17.7097 10.9782 17.9552 10.9683 18.1515 10.85C18.1319 10.9092 18.0828 10.9486 18.1024 11.0472C18.289 10.7318 18.5345 11.0275 18.7112 10.8106L18.672 11.0077C19.0451 11.1654 18.6916 10.6135 19.0058 10.6825C18.9469 10.7515 18.9862 10.8205 18.9862 10.8895C19.1826 10.5051 19.6244 10.5248 19.8601 10.3474C19.8601 10.3769 19.8601 10.4262 19.8601 10.4262C20.135 10.3178 20.4492 10.3375 20.7242 10.1207C20.8616 10.17 20.8027 10.5642 21.0875 10.4065C20.9795 10.0616 21.549 10.1108 21.2544 9.76587C21.5195 9.75601 21.9614 9.74616 22.0792 9.5786C22.0105 9.74616 22.3443 9.96299 22.148 10.0616L22.3738 10.2193C22.3934 10.3671 22.1971 10.2193 22.3051 10.3868C22.4033 10.3375 22.6684 10.0911 22.7862 10.1207C22.904 9.83486 22.9335 9.37162 23.2183 9.21393C23.1299 9.40119 23.4539 9.55889 23.3754 9.65745C23.4343 9.39134 23.4834 9.10551 23.5325 8.82954C23.6208 8.7704 23.6699 9.0858 23.7681 8.93795C23.719 8.84925 23.7681 8.7704 23.7681 8.68169C23.827 8.70141 24.1314 8.42543 24.3278 8.72112C24.4358 8.82954 24.2002 8.86896 24.3671 8.9281C24.5439 8.82954 24.5046 8.72112 24.6715 8.62256L24.701 8.66198C24.8482 8.65213 24.9759 8.35644 24.7599 8.23817C24.6715 8.26774 24.8875 8.41558 24.7206 8.38601C24.7108 8.15932 24.8777 8.00162 25.0348 7.90306C25.0054 7.98191 25.0643 8.07061 25.0839 8.16918C25.1723 7.79464 25.3588 7.58766 25.516 7.3314C25.4276 7.18356 25.6043 7.6468 25.516 7.59752C25.9676 7.59752 25.9087 6.90759 26.3506 6.99629C26.3309 7.04557 26.1738 6.82874 26.2033 6.85831C26.3604 6.75975 26.5273 6.94701 26.5666 6.79917C26.6648 6.90759 26.6648 6.66119 26.7532 6.53306C26.7532 6.40493 26.8219 6.56262 26.7434 6.65133C26.8023 6.42464 27.3129 5.8037 27.794 5.73471C27.7351 5.65586 27.8333 5.30104 27.9315 5.25176L28.01 5.46859C28.1573 5.53759 28.285 5.28133 28.4028 5.43902C28.4421 5.09406 27.8235 6.0501 27.9609 5.72485C28.118 5.85298 28.118 5.21233 28.2261 5.50802C28.393 5.3996 28.4323 5.0842 28.6974 5.17291C28.6286 5.17291 28.7072 5.52773 28.8447 5.42917C29.0705 5.26161 28.8643 5.30104 29.0214 5.12363L29.1 4.97579C29.0018 4.77866 29.3356 4.88708 29.1294 4.71953C29.2473 4.86737 29.4436 4.4337 29.5811 4.76881L29.6793 5.04478C29.7775 4.97579 29.7186 4.6801 29.748 4.53226C29.7775 4.55197 29.8266 4.5914 29.8462 4.63082C29.6695 4.22672 30.1212 4.54212 30.1015 4.17744C30.3961 4.20701 30.6907 3.91132 30.9067 4.1183C31.0344 3.92118 31.1325 3.70434 31.3682 3.70434C31.3388 3.76348 31.2897 3.79305 31.3191 3.88175C31.4959 3.95075 31.486 3.83247 31.5744 3.7142C31.5744 3.78319 31.9279 3.84233 32.1243 3.93103C32.2519 3.74377 32.1047 3.54665 32.0752 3.3988C32.3894 3.74377 32.4778 2.94542 32.8215 3.23125C32.7822 3.3101 32.6349 3.52693 32.8215 3.57621C33.1357 3.92118 33.0375 3.14254 33.3713 3.25096L33.1848 2.93556C33.3811 3.10312 33.5088 2.60046 33.5972 2.96513C33.6463 2.80744 33.9507 2.96513 33.8034 2.64974C34.3336 2.77787 34.8246 2.13722 35.2763 2.64974C35.3254 2.57089 35.4923 2.58074 35.4137 2.42305C35.2566 2.26535 35.3057 2.60046 35.2272 2.48218C35.2763 2.45261 35.2664 2.35405 35.2566 2.31463C35.4137 2.35405 35.5316 2.3442 35.4825 2.65959C35.8458 2.77787 35.6298 1.98938 36.0618 2.01894C36.0814 2.16679 36.1305 2.20621 36.2385 2.15693L36.3956 1.86125C36.6608 1.85139 36.6215 2.13722 36.6902 2.37377C36.8179 2.29492 36.9848 2.26535 36.9946 2.06822L37.2303 2.32448C37.0535 2.13722 37.3088 2.15693 37.3579 2.07808L37.3088 2.15693C37.3579 2.25549 37.4954 2.15693 37.574 2.10765C37.515 1.95981 37.3481 1.9401 37.2499 1.92038C37.2892 1.80211 37.407 1.80211 37.4659 1.65427C37.4954 1.90067 37.7311 1.77254 37.8391 1.76268C37.9765 1.7824 37.9274 1.51628 37.9667 1.51628C37.9962 1.63455 38.1729 1.48671 38.114 1.68384C38.0846 1.73312 37.9864 1.58527 37.9471 1.7134C38.0453 1.7824 38.0846 1.99923 38.222 1.80211C38.3202 1.65427 38.0846 1.34873 38.3595 1.43743C38.3104 1.50643 38.3202 1.60499 38.2908 1.70355L38.5461 1.77254L38.5068 1.55571C38.5068 1.55571 38.5362 1.6247 38.5559 1.65427C38.5755 1.41772 38.8897 1.51628 38.8897 1.25017C38.9977 1.20088 39.1647 1.34873 39.2825 1.34873L39.2629 1.36844C39.42 1.467 39.5869 1.34873 39.6753 1.18117V1.23045C39.7538 1.23045 39.9207 1.16146 39.9895 1.02347C40.2055 1.1516 40.1957 1.83168 40.3528 1.51628C40.5394 1.47686 40.5786 1.07275 40.4804 0.944625C40.8438 1.03333 41.1776 0.609516 41.5507 0.905201C41.59 0.806639 41.5507 0.757359 41.6391 0.698222C42.1595 0.717934 42.68 0.284264 43.1415 0.678509C43.004 0.786927 43.1513 0.895344 43.1709 1.02347C43.2691 0.816495 43.3378 1.21074 43.3477 0.875632C43.3182 0.678509 43.3182 0.579948 43.1611 0.520811C43.4557 0.382825 43.9172 0.343401 44.1037 0.510955C44.0154 0.432106 44.0743 0.363113 44.1332 0.29412C44.1332 0.609517 44.3689 0.648941 44.526 0.520811V0.323689L44.6634 0.510955C44.7223 0.441962 44.7125 0.106853 44.8893 0.274408C44.8991 0.343401 44.9187 0.42225 44.9482 0.471531C45.1151 0.303976 45.3508 0.0181482 45.557 0.175846L45.7239 0.451818C45.8025 0.42225 45.9399 0.244839 45.7926 0.16599C46.1265 0.333545 46.3425 0.343401 46.4505 0.589804C47.0004 -0.0311325 47.8547 -0.0114202 48.5224 0.0477167L48.4929 0.185703C48.6697 0.333545 48.6009 -0.0607009 48.7188 0.0477167C48.65 0.175846 48.8366 0.353257 48.6893 0.510955C48.9348 0.678509 49.033 0.284264 49.2097 0.234983C49.249 0.0477167 49.0624 0.343401 49.1214 0.106853C49.1606 0.0378605 49.465 0.284264 49.5338 -0.00156403C49.5927 0.11671 49.5141 0.323689 49.4748 0.432106L49.6418 0.303976C49.7989 0.648941 49.1508 0.865776 49.3177 1.28959L49.465 1.26002C49.5632 1.56556 49.0723 1.56556 49.4061 1.69369C49.5632 1.56556 49.74 1.16146 49.6123 1.02347C49.9364 0.974194 49.8283 0.353257 50.1818 0.42225C50.2604 0.59966 49.8971 0.42225 49.9364 0.668653C50.0738 0.924913 50.28 0.589804 50.4175 0.688366C50.2702 0.560236 50.447 0.29412 50.555 0.254696C50.7121 0.412394 50.3979 0.510955 50.6532 0.570092C50.7219 0.412394 50.9674 0.323689 50.7808 0.175846C50.9281 -0.178975 51.0361 0.313832 51.2227 0.0477167C51.2619 0.323689 50.8594 0.609516 51.1245 0.786927C51.1245 0.520811 51.5271 0.510955 51.4387 0.106853C51.5369 0.205415 51.5173 0.402538 51.4092 0.540523C51.5369 0.72779 51.8806 0.16599 51.8315 0.668653L51.9395 0.42225C51.9689 0.510955 52.0278 0.589804 52.0769 0.747502C52.2144 0.777071 52.5974 0.491243 52.4992 0.875632C52.5483 0.836208 52.8625 0.954481 52.8036 0.648941C52.6465 0.432106 52.5286 0.786927 52.509 0.402538C52.5777 0.717934 52.8036 0.432106 52.941 0.372969L52.9214 0.520811C53 0.481387 53.1571 0.560236 53.2356 0.412394C53.1571 0.481387 53.1571 0.589804 53.2062 0.639085L53.3436 0.432106C53.6578 0.402538 53.2945 0.836208 53.5891 0.85592L53.3338 0.974194C53.3927 0.954481 53.4222 1.18117 53.5695 1.1516C53.6775 0.964337 53.8444 0.747502 53.9426 0.609517C54.1292 0.570092 53.9426 0.85592 54.1586 0.708078C54.0702 0.767215 53.972 0.816495 53.8837 0.885488C53.8346 0.944625 53.9131 1.26002 54.0997 1.32901C54.247 1.3093 54.5514 1.09247 54.3845 0.905201C54.4925 0.944625 54.5808 1.11218 54.4532 1.23045C54.7085 1.25017 54.5023 1.00376 54.7478 0.954481C54.7772 1.11218 54.954 1.39801 55.0227 1.64441L54.6889 1.89081L54.8165 1.9401C54.5416 2.13722 54.8165 2.16679 54.6103 2.41319C54.679 2.48218 54.8165 2.44276 54.9343 2.41319C54.8754 1.85139 55.4842 1.94995 55.5922 1.52614C56.0145 1.59513 55.3467 2.58074 56.0243 2.15693C56.0243 2.0288 56.3483 1.82182 56.0635 1.82182C56.2697 1.97952 56.4269 1.49657 56.6036 1.82182C56.3287 1.86125 56.5938 2.33434 56.1912 2.39348C56.2796 2.2752 56.093 2.20621 56.0243 2.22592C56.0341 2.42305 55.8082 2.5906 56.0243 2.71873C56.1716 2.75815 56.3483 2.86657 56.4465 2.64974C56.5643 2.4329 56.2305 2.55118 56.4465 2.38362C56.7607 2.47233 56.6036 2.82715 56.9473 2.52161C56.7607 2.44276 56.8491 2.19635 56.9473 2.05837L57.2026 2.09779L57.0749 2.21607C57.3302 2.52161 57.3302 2.0288 57.6346 2.26535L57.5855 2.63988C57.3597 2.80744 57.2026 2.24564 57.0062 2.65959C57.1928 2.79758 57.399 2.63988 57.507 2.88628C57.4481 2.88628 57.3891 2.85672 57.3204 2.85672C57.3793 2.92571 57.0847 3.4678 57.5561 3.37909C57.7721 3.37909 57.6935 3.28053 57.8015 3.14254C58.1354 3.33967 58.3416 3.28053 58.5478 3.42837C58.2827 3.63535 58.8424 3.77334 58.4103 3.82262C58.4693 3.57621 58.0078 3.24111 57.7132 3.40866C57.5757 3.80291 57.5168 3.18197 57.2124 3.44808C57.4382 3.63535 57.1829 3.93103 57.0553 4.15773C57.1044 4.21686 57.2222 4.17744 57.291 4.17744C57.4677 4.00988 57.3891 3.95075 57.5462 3.75362C57.7623 4.00003 58.0765 4.09859 58.3612 4.07888C58.3612 4.24643 58.1649 4.38442 58.0568 4.31542C58.3612 4.55197 58.6558 4.84766 58.8031 5.19262C58.97 4.75895 59.1173 5.46859 59.2842 5.14334C59.2352 4.9265 59.3432 4.60125 59.5494 4.5914C59.6083 4.71953 59.4119 4.68996 59.3824 4.78852C59.6574 4.78852 59.2548 5.20248 59.6279 5.13348C59.3039 4.90679 59.1959 5.36017 58.9111 5.47845C59.1959 5.57701 58.7246 5.59672 58.8718 5.79385C59.1664 5.88255 59.4414 6.07967 59.6181 6.29651C59.5297 6.74003 60.0305 7.07514 60.1287 7.39054C60.0403 7.59752 59.677 7.61723 59.677 7.79464C59.7458 7.98191 59.9814 7.52853 59.9323 7.86363H59.8538C59.9618 7.92277 59.8145 8.42543 60.2956 8.38601H59.9127C59.893 8.455 59.9814 8.48457 60.0305 8.51414C59.9127 8.54371 59.8145 8.63241 59.7261 8.57328C59.5101 8.80982 59.8439 8.91824 59.893 9.10551L60.0894 8.93795C60.3153 9.23364 60.1778 9.4899 60.2662 9.80529L60.0502 9.82501L60.1974 10.0024C59.9814 9.9827 59.8636 10.1601 60.0502 10.2488C59.8636 10.101 59.6672 9.96299 59.4806 9.83486C59.5985 9.68702 59.7556 9.94328 59.9618 9.83486C60.1483 9.7363 60.0502 9.45047 59.8243 9.44062C59.8243 9.54903 59.8734 9.54903 59.9618 9.62788C59.6672 9.70673 59.6476 9.53918 59.4315 9.49975C59.4512 9.54903 59.3824 9.6476 59.4806 9.63774C59.3137 9.54903 59.2646 9.45047 59.2253 9.28292C59.3628 9.38148 59.3923 9.18436 59.4905 9.21393C59.2253 9.25335 59.1075 9.10551 59.137 8.86896C59.4119 8.63241 58.8522 8.51414 58.8424 8.26774C59.1271 8.26774 59.3824 8.33673 59.5396 8.46486C59.6181 8.26774 59.4708 8.28745 59.5396 8.09033C59.3235 8.07061 59.0093 8.11989 58.8228 7.97205L59.0093 7.8932C58.8522 7.74536 58.5773 7.86363 58.5478 7.61723C58.4398 7.23284 58.2729 6.8386 58.1158 6.57248L58.2729 6.45421C57.8114 6.55277 57.8016 6.07967 57.5266 6.01068C57.399 5.59672 56.8196 5.53759 56.9178 5.14334C56.5938 4.98564 56.2992 4.8378 56.0145 4.6801C55.7101 4.55197 55.4253 4.39427 55.1405 4.16758L55.386 3.98032C55.17 4.09859 55.386 3.78319 55.2584 3.76348C55.2878 4.0296 54.954 3.95075 54.7969 4.06902C54.6103 3.72406 54.1292 3.75362 53.7855 3.86204L53.8444 3.67478C53.4418 3.93103 53.2552 3.47765 52.9018 3.32981C52.8821 3.24111 52.8723 3.04398 52.7643 3.03413C52.4795 3.29039 52.3912 3.24111 52.0671 3.35938C51.8609 3.3101 51.5467 3.17211 51.3601 3.00456C50.496 3.29039 49.74 2.906 48.8759 3.11298L48.8366 2.87643C48.002 3.3101 47.02 2.84686 46.3229 3.12283L46.3818 2.71873C46.156 2.60046 45.881 2.837 45.9498 3.11298C45.7239 2.98485 45.4097 3.33967 45.2624 3.01441C45.0366 2.95528 44.9973 3.21154 44.8205 3.28053C44.359 3.1524 44.1921 3.21154 43.7797 3.32981H43.8877C43.927 3.25096 43.9172 3.08341 43.8092 3.06369C43.6619 3.19182 43.22 3.01441 43.4262 3.47765C42.9451 3.24111 42.4148 3.83247 41.9239 3.51708C41.9828 3.64521 41.8748 3.68463 41.8355 3.77334C41.4427 3.84233 40.991 3.65506 40.7161 3.92118C40.6376 3.8719 40.775 3.68463 40.6179 3.69449C40.5295 3.76348 40.6474 3.86204 40.5394 3.95075C39.96 4.31542 39.2039 3.95075 38.6443 4.14787C37.682 4.63082 36.6019 4.77866 35.6592 5.12363L35.6396 5.02507C35.4334 5.46859 34.7755 4.90679 34.6969 5.51787C34.5889 5.45874 34.4023 5.57701 34.3925 5.37989C34.2256 5.70514 33.607 5.3996 33.3615 5.84313C33.4008 5.84313 33.4106 5.81356 33.4302 5.76428C32.9884 5.70514 32.7822 6.09939 32.3305 6.07967C32.3501 6.02054 32.409 5.97126 32.3894 5.87269C32.1734 5.76428 32.2028 6.39507 31.9377 6.00082C31.8592 6.04025 31.9672 6.23737 32.0163 6.2078C31.1227 6.39507 30.3863 7.07514 29.6891 7.61723C29.0018 7.70594 29.2571 6.96673 28.992 7.51867C28.9036 7.45953 29.0607 7.68622 29.0018 7.60737C28.9134 7.82421 28.4715 7.34126 28.4912 7.62709C28.6974 7.83406 28.5108 7.8045 28.5992 7.95234C28.1671 8.01148 27.9708 7.87349 27.8627 8.21846L27.7842 8.09033C27.8235 8.59299 27.2049 8.82954 27.1852 9.4209C25.133 10.9092 23.1004 11.8849 20.9206 12.5354C18.7407 13.0085 16.5903 13.5605 14.2926 13.4028C13.7427 13.0283 13.7133 13.048 13.1241 13.1958C13.1437 13.1367 13.183 13.117 13.1437 13.0578C13.1143 13.3831 12.7313 13.0874 12.6724 13.3929C11.828 13.3141 11.0326 13.3436 10.1391 13.2352C10.2863 13.2254 10.3845 12.9691 10.2176 12.9691L10.0114 13.1465L9.99177 13.0578C9.87394 13.0874 9.72665 13.2254 9.82484 13.3436C8.67599 13.3239 7.54678 12.9494 6.47649 12.4073C5.40619 11.8652 4.40463 11.1556 3.44235 10.3375C3.27542 10.0714 3.0103 9.81515 2.74518 9.54903C2.4997 9.26321 2.21495 8.98723 2.00874 8.71126C1.33122 6.71047 1.4785 5.07435 1.30176 3.31995C1.30176 3.31995 2.12657 3.62549 2.2935 4.28586H2.33278Z" fill="#404040"/>
<path id="Vector_15" d="M59.4021 10.5151C59.5595 10.4559 59.6284 10.2685 59.8547 10.3967C59.7071 10.4263 59.5399 10.5249 59.4021 10.5151Z" fill="#404040"/>
<path id="Vector_16" d="M59.4119 5.41088C59.4119 5.41088 59.4119 5.31122 59.4319 5.28133C59.4818 5.33116 59.6318 5.30126 59.5918 5.40092C59.5418 5.35109 59.4818 5.40092 59.4119 5.42085V5.41088Z" fill="#404040"/>
<path id="Vector_17" d="M58.6067 4.27602C58.7248 4.18724 59.02 4.3352 59.1577 4.45357L58.6067 4.27602Z" fill="#404040"/>
<path id="Vector_18" d="M58.0274 2.94555C58.0075 2.77786 58.0772 2.74826 58.2066 2.84691C58.1668 2.91595 58.0971 2.90609 58.0274 2.94555Z" fill="#404040"/>
<path id="Vector_19" d="M57.7536 3.14276C57.6639 3.07371 57.6739 2.97507 57.6839 2.87643C57.6142 2.97507 57.9328 2.97507 57.7536 3.14276Z" fill="#404040"/>
<path id="Vector_20" d="M55.527 1.32913C55.4573 1.3094 55.2781 1.35873 55.2781 1.18117C55.298 1.3094 55.6564 1.16144 55.527 1.32913Z" fill="#404040"/>
<path id="Vector_21" d="M54.2486 1.05318C54.2486 1.05318 54.2088 0.994 54.149 1.02359C54.0993 0.934815 54.2088 0.865767 54.2785 0.875631L54.2586 1.06305L54.2486 1.05318Z" fill="#404040"/>
<path id="Vector_22" d="M33.0669 3.10433L33.1669 2.9947L33.1969 3.13422L33.0669 3.10433Z" fill="#404040"/>
<path id="Vector_23" d="M25.0279 7.58876C24.9779 7.72828 24.8879 7.50903 24.8679 7.49907C24.9479 7.43927 24.9279 7.66849 25.0279 7.58876Z" fill="#404040"/>
<path id="Vector_24" d="M20.9598 10.0123L20.9897 10.0024L21.0594 10.2885L20.9598 10.0123Z" fill="#404040"/>
<path id="Vector_25" d="M59.4614 42.3404C59.551 42.5771 59.7103 42.2023 59.5909 42.4982C59.4714 42.4686 59.3818 42.4292 59.4614 42.3404Z" fill="#404040"/>
<path id="Vector_26" d="M2.33278 35.8255C2.71573 36.2395 2.74518 36.7027 2.8041 37.1857C2.84338 37.4222 2.86301 37.6785 2.94157 37.9052C3.02994 38.1318 3.15759 38.3388 3.34416 38.4965C3.41289 38.5754 2.94157 38.6444 3.14777 38.8218C4.01186 39.3737 4.5421 40.4973 5.2589 41.5026L5.14107 41.5618C5.27854 41.749 5.70077 41.5618 5.85788 41.7195C5.8186 41.7885 5.74005 41.7786 5.73023 41.8969C5.88733 41.7293 6.13281 41.9955 6.29974 41.8772C6.33902 41.9955 6.25064 42.163 6.29974 42.301L6.52558 42.1137C7.08528 41.6899 7.29148 42.4784 7.84136 42.3306C7.80208 42.3798 7.74317 42.4193 7.7628 42.4784C8.58762 42.3404 9.45171 42.6164 10.2962 42.5967C10.2471 42.6854 10.198 42.8529 10.2274 42.9614C10.306 42.6952 10.5711 42.6657 10.7871 42.6262C10.8559 42.9219 11.1897 42.3996 11.4254 42.5868L11.3959 42.646C11.6021 42.37 11.661 42.8332 11.8378 42.4883L11.9458 42.7248C12.0538 42.3207 12.2109 42.9515 12.3778 42.7544V42.6755C12.5251 42.5868 12.5939 42.7839 12.7411 42.7248V42.7741C13.075 42.6657 13.2616 42.8924 13.2517 42.577C13.3696 42.8332 12.9375 42.6854 13.1143 43.0599C14.1846 42.7445 15.2647 42.7445 16.335 42.6065C16.4725 42.7149 16.551 42.7445 16.5903 42.8628C16.6885 42.7938 16.9831 42.7544 17.0616 42.577C17.0223 42.5868 17.15 42.7248 17.2089 42.7347C17.4249 42.8234 17.366 42.3601 17.6017 42.4685C17.5329 42.5671 17.5133 42.6657 17.5624 42.7839C17.7097 42.5178 17.9552 42.508 18.1515 42.3897C18.1319 42.4488 18.0828 42.4883 18.1024 42.5868C18.289 42.2714 18.5345 42.5671 18.7112 42.3503L18.672 42.5474C19.0451 42.7051 18.6916 42.1531 19.0058 42.2221C18.9469 42.2911 18.9862 42.3601 18.9862 42.4291C19.1826 42.0447 19.6244 42.0644 19.8601 41.887C19.8601 41.9166 19.8601 41.9659 19.8601 41.9659C20.135 41.8575 20.4492 41.8772 20.7242 41.6603C20.8616 41.7096 20.8027 42.1039 21.0875 41.9462C20.9795 41.6012 21.549 41.6505 21.2544 41.3055C21.5195 41.2957 21.9614 41.2858 22.0792 41.1183C22.0105 41.2858 22.3443 41.5026 22.148 41.6012L22.3738 41.7589C22.3934 41.9067 22.1971 41.7589 22.3051 41.9265C22.4033 41.8772 22.6684 41.6308 22.7862 41.6603C22.904 41.3745 22.9335 40.9113 23.2183 40.7536C23.1299 40.9408 23.4539 41.0985 23.3754 41.1971C23.4343 40.931 23.4834 40.6452 23.5325 40.3692C23.6208 40.31 23.6699 40.6254 23.7681 40.4776C23.719 40.3889 23.7681 40.3101 23.7681 40.2213C23.827 40.2411 24.1314 39.9651 24.3278 40.2608C24.4358 40.3692 24.2002 40.4086 24.3671 40.4677C24.5439 40.3692 24.5046 40.2608 24.6715 40.1622L24.701 40.2016C24.8482 40.1918 24.9759 39.8961 24.7599 39.7778C24.6715 39.8074 24.8875 39.9552 24.7206 39.9257C24.7108 39.699 24.8777 39.5413 25.0348 39.4427C25.0054 39.5216 25.0643 39.6103 25.0839 39.7088C25.1723 39.3343 25.3588 39.1273 25.516 38.8711C25.4276 38.7232 25.6043 39.1864 25.516 39.1372C25.9676 39.1372 25.9087 38.4472 26.3506 38.5359C26.3309 38.5852 26.1738 38.3684 26.2033 38.398C26.3604 38.2994 26.5273 38.4867 26.5666 38.3388C26.6648 38.4472 26.6648 38.2008 26.7532 38.0727C26.7532 37.9446 26.8219 38.1023 26.7434 38.191C26.8023 37.9643 27.3129 37.3434 27.794 37.2744C27.7351 37.1955 27.8333 36.8407 27.9315 36.7914L28.01 37.0082C28.1573 37.0772 28.285 36.821 28.4028 36.9787C28.4421 36.6337 27.8235 37.5898 27.9609 37.2645C28.118 37.3926 28.118 36.752 28.2261 37.0477C28.393 36.9392 28.4323 36.6239 28.6974 36.7126C28.6286 36.7126 28.7072 37.0674 28.8447 36.9688C29.0705 36.8013 28.8643 36.8407 29.0214 36.6633L29.1 36.5154C29.0018 36.3183 29.3356 36.4267 29.1294 36.2592C29.2473 36.407 29.4436 35.9733 29.5811 36.3085L29.6793 36.5844C29.7775 36.5154 29.7186 36.2198 29.748 36.0719C29.7775 36.0916 29.8266 36.131 29.8462 36.1705C29.6695 35.7664 30.1212 36.0818 30.1015 35.7171C30.3961 35.7467 30.6907 35.451 30.9067 35.658C31.0344 35.4608 31.1325 35.244 31.3682 35.244C31.3388 35.3031 31.2897 35.3327 31.3191 35.4214C31.4959 35.4904 31.486 35.3721 31.5744 35.2539C31.5744 35.3228 31.9279 35.382 32.1243 35.4707C32.2519 35.2834 32.1047 35.0863 32.0752 34.9385C32.3894 35.2834 32.4778 34.4851 32.8215 34.7709C32.7822 34.8497 32.6349 35.0666 32.8215 35.1159C33.1357 35.4608 33.0375 34.6822 33.3713 34.7906L33.1848 34.4752C33.3811 34.6428 33.5088 34.1401 33.5972 34.5048C33.6463 34.3471 33.9507 34.5048 33.8034 34.1894C34.3336 34.3175 34.8246 33.6769 35.2763 34.1894C35.3254 34.1105 35.4923 34.1204 35.4137 33.9627C35.2566 33.805 35.3057 34.1401 35.2272 34.0218C35.2763 33.9923 35.2664 33.8937 35.2566 33.8543C35.4137 33.8937 35.5316 33.8838 35.4825 34.1992C35.8458 34.3175 35.6298 33.529 36.0618 33.5586C36.0814 33.7064 36.1305 33.7459 36.2385 33.6966L36.3956 33.4009C36.6608 33.391 36.6215 33.6769 36.6902 33.9134C36.8179 33.8346 36.9848 33.805 36.9946 33.6079L37.2303 33.8641C37.0535 33.6769 37.3088 33.6966 37.3579 33.6177L37.3088 33.6966C37.3579 33.7951 37.4954 33.6966 37.574 33.6473C37.515 33.4995 37.3481 33.4797 37.2499 33.46C37.2892 33.3418 37.407 33.3418 37.4659 33.1939C37.4954 33.4403 37.7311 33.3122 37.8391 33.3023C37.9765 33.322 37.9274 33.0559 37.9667 33.0559C37.9962 33.1742 38.1729 33.0264 38.114 33.2235C38.0846 33.2728 37.9864 33.1249 37.9471 33.2531C38.0453 33.322 38.0846 33.5389 38.222 33.3418C38.3202 33.1939 38.0846 32.8884 38.3595 32.9771C38.3104 33.0461 38.3202 33.1446 38.2908 33.2432L38.5461 33.3122L38.5068 33.0954C38.5068 33.0954 38.5362 33.1643 38.5559 33.1939C38.5755 32.9574 38.8897 33.0559 38.8897 32.7898C38.9977 32.7405 39.1647 32.8884 39.2825 32.8884L39.2629 32.9081C39.42 33.0066 39.5869 32.8884 39.6753 32.7208V32.7701C39.7538 32.7701 39.9207 32.7011 39.9895 32.5631C40.2055 32.6913 40.1957 33.3713 40.3528 33.0559C40.5394 33.0165 40.5786 32.6124 40.4804 32.4843C40.8438 32.573 41.1776 32.1492 41.5507 32.4449C41.59 32.3463 41.5507 32.297 41.6391 32.2379C42.1595 32.2576 42.68 31.8239 43.1415 32.2182C43.004 32.3266 43.1513 32.435 43.1709 32.5631C43.2691 32.3561 43.3378 32.7504 43.3477 32.4153C43.3182 32.2182 43.3182 32.1196 43.1611 32.0605C43.4557 31.9225 43.9172 31.8831 44.1037 32.0506C44.0154 31.9718 44.0743 31.9028 44.1332 31.8338C44.1332 32.1492 44.3689 32.1886 44.526 32.0605V31.8633L44.6634 32.0506C44.7223 31.9816 44.7125 31.6465 44.8893 31.8141C44.8991 31.883 44.9187 31.9619 44.9482 32.0112C45.1151 31.8436 45.3508 31.5578 45.557 31.7155L45.7239 31.9915C45.8025 31.9619 45.9399 31.7845 45.7926 31.7056C46.1265 31.8732 46.3425 31.8831 46.4505 32.1295C47.0004 31.5085 47.8547 31.5282 48.5224 31.5874L48.4929 31.7254C48.6697 31.8732 48.6009 31.4789 48.7188 31.5874C48.65 31.7155 48.8366 31.8929 48.6893 32.0506C48.9348 32.2182 49.033 31.8239 49.2097 31.7746C49.249 31.5874 49.0624 31.8831 49.1214 31.6465C49.1606 31.5775 49.465 31.8239 49.5338 31.5381C49.5927 31.6564 49.5141 31.8633 49.4748 31.9718L49.6418 31.8436C49.7989 32.1886 49.1508 32.4054 49.3177 32.8292L49.465 32.7997C49.5632 33.1052 49.0723 33.1052 49.4061 33.2333C49.5632 33.1052 49.74 32.7011 49.6123 32.5631C49.9364 32.5138 49.8283 31.8929 50.1818 31.9619C50.2604 32.1393 49.8971 31.9619 49.9364 32.2083C50.0738 32.4646 50.28 32.1295 50.4175 32.228C50.2702 32.0999 50.447 31.8338 50.555 31.7943C50.7121 31.952 50.3979 32.0506 50.6532 32.1097C50.7219 31.952 50.9674 31.8633 50.7808 31.7155C50.9281 31.3607 51.0361 31.8535 51.2227 31.5874C51.2619 31.8633 50.8594 32.1492 51.1245 32.3266C51.1245 32.0605 51.5271 32.0506 51.4387 31.6465C51.5369 31.7451 51.5173 31.9422 51.4092 32.0802C51.5369 32.2674 51.8806 31.7056 51.8315 32.2083L51.9395 31.9619C51.9689 32.0506 52.0278 32.1295 52.0769 32.2872C52.2144 32.3167 52.5974 32.0309 52.4992 32.4153C52.5483 32.3759 52.8625 32.4941 52.8036 32.1886C52.6465 31.9718 52.5286 32.3266 52.509 31.9422C52.5777 32.2576 52.8036 31.9718 52.941 31.9126L52.9214 32.0605C53 32.021 53.1571 32.0999 53.2356 31.952C53.1571 32.021 53.1571 32.1295 53.2062 32.1787L53.3436 31.9718C53.6578 31.9422 53.2945 32.3759 53.5891 32.3956L53.3338 32.5138C53.3927 32.4941 53.4222 32.7208 53.5695 32.6913C53.6775 32.504 53.8444 32.2872 53.9426 32.1492C54.1292 32.1097 53.9426 32.3956 54.1586 32.2477C54.0702 32.3069 53.972 32.3561 53.8837 32.4251C53.8346 32.4843 53.9131 32.7997 54.0997 32.8687C54.247 32.849 54.5514 32.6321 54.3845 32.4449C54.4925 32.4843 54.5808 32.6518 54.4532 32.7701C54.7085 32.7898 54.5023 32.5434 54.7478 32.4941C54.7772 32.6518 54.954 32.9377 55.0227 33.1841L54.6889 33.4305L54.8165 33.4797C54.5416 33.6769 54.8165 33.7064 54.6103 33.9528C54.679 34.0218 54.8165 33.9824 54.9343 33.9528C54.8754 33.391 55.4842 33.4896 55.5922 33.0658C56.0145 33.1348 55.3467 34.1204 56.0243 33.6966C56.0243 33.5684 56.3483 33.3615 56.0635 33.3615C56.2697 33.5192 56.4269 33.0362 56.6036 33.3615C56.3287 33.4009 56.5938 33.874 56.1912 33.9331C56.2796 33.8149 56.093 33.7459 56.0243 33.7656C56.0341 33.9627 55.8082 34.1303 56.0243 34.2584C56.1716 34.2978 56.3483 34.4062 56.4465 34.1894C56.5643 33.9726 56.2305 34.0908 56.4465 33.9233C56.7607 34.012 56.6036 34.3668 56.9473 34.0613C56.7607 33.9824 56.8491 33.736 56.9473 33.598L57.2026 33.6374L57.0749 33.7557C57.3302 34.0613 57.3302 33.5684 57.6346 33.805L57.5855 34.1795C57.3597 34.3471 57.2026 33.7853 57.0062 34.1992C57.1928 34.3372 57.399 34.1795 57.507 34.4259C57.4481 34.4259 57.3891 34.3964 57.3204 34.3964C57.3793 34.4654 57.0847 35.0074 57.5561 34.9187C57.7721 34.9187 57.6935 34.8202 57.8015 34.6822C58.1354 34.8793 58.3416 34.8202 58.5478 34.968C58.2827 35.175 58.8424 35.313 58.4103 35.3623C58.4693 35.1159 58.0078 34.7808 57.7132 34.9483C57.5757 35.3426 57.5168 34.7216 57.2124 34.9877C57.4382 35.175 57.1829 35.4707 57.0553 35.6974C57.1044 35.7565 57.2222 35.7171 57.291 35.7171C57.4677 35.5495 57.3891 35.4904 57.5462 35.2933C57.7623 35.5397 58.0765 35.6382 58.3612 35.6185C58.3612 35.7861 58.1649 35.9241 58.0568 35.8551C58.3612 36.0916 58.6558 36.3873 58.8031 36.7323C58.97 36.2986 59.1173 37.0082 59.2842 36.683C59.2352 36.4662 59.3432 36.1409 59.5494 36.131C59.6083 36.2592 59.4119 36.2296 59.3824 36.3282C59.6574 36.3282 59.2548 36.7421 59.6279 36.6731C59.3039 36.4464 59.1959 36.8998 58.9111 37.0181C59.1959 37.1167 58.7246 37.1364 58.8718 37.3335C59.1664 37.4222 59.4414 37.6193 59.6181 37.8362C59.5297 38.2797 60.0305 38.6148 60.1287 38.9302C60.0403 39.1372 59.677 39.1569 59.677 39.3343C59.7458 39.5216 59.9814 39.0682 59.9323 39.4033H59.8538C59.9618 39.4624 59.8145 39.9651 60.2956 39.9257H59.9127C59.893 39.9947 59.9814 40.0242 60.0305 40.0538C59.9127 40.0834 59.8145 40.1721 59.7261 40.1129C59.5101 40.3495 59.8439 40.4579 59.893 40.6452L60.0894 40.4776C60.3153 40.7733 60.1778 41.0295 60.2662 41.3449L60.0502 41.3647L60.1974 41.5421C59.9814 41.5224 59.8636 41.6998 60.0502 41.7885C59.8636 41.6406 59.6672 41.5026 59.4806 41.3745C59.5985 41.2267 59.7556 41.4829 59.9618 41.3745C60.1483 41.276 60.0502 40.9901 59.8243 40.9803C59.8243 41.0887 59.8734 41.0887 59.9618 41.1675C59.6672 41.2464 59.6476 41.0788 59.4315 41.0394C59.4512 41.0887 59.3824 41.1872 59.4806 41.1774C59.3137 41.0887 59.2646 40.9901 59.2253 40.8226C59.3628 40.9211 59.3923 40.724 59.4905 40.7536C59.2253 40.793 59.1075 40.6452 59.137 40.4086C59.4119 40.1721 58.8522 40.0538 58.8424 39.8074C59.1271 39.8074 59.3824 39.8764 59.5396 40.0045C59.6181 39.8074 59.4708 39.8271 59.5396 39.63C59.3235 39.6103 59.0093 39.6595 58.8228 39.5117L59.0093 39.4329C58.8522 39.285 58.5773 39.4033 58.5478 39.1569C58.4398 38.7725 58.2729 38.3782 58.1158 38.1121L58.2729 37.9939C57.8114 38.0924 57.8016 37.6193 57.5266 37.5503C57.399 37.1364 56.8196 37.0772 56.9178 36.683C56.5938 36.5253 56.2992 36.3774 56.0145 36.2198C55.7101 36.0916 55.4253 35.9339 55.1405 35.7072L55.386 35.52C55.17 35.6382 55.386 35.3228 55.2584 35.3031C55.2878 35.5692 54.954 35.4904 54.7969 35.6087C54.6103 35.2637 54.1292 35.2933 53.7855 35.4017L53.8444 35.2144C53.4418 35.4707 53.2552 35.0173 52.9018 34.8695C52.8821 34.7808 52.8723 34.5836 52.7643 34.5738C52.4795 34.83 52.3912 34.7808 52.0671 34.899C51.8609 34.8497 51.5467 34.7118 51.3601 34.5442C50.496 34.83 49.74 34.4456 48.8759 34.6526L48.8366 34.4161C48.002 34.8498 47.02 34.3865 46.3229 34.6625L46.3818 34.2584C46.156 34.1401 45.881 34.3767 45.9498 34.6526C45.7239 34.5245 45.4097 34.8793 45.2624 34.5541C45.0366 34.4949 44.9973 34.7512 44.8205 34.8202C44.359 34.6921 44.1921 34.7512 43.7797 34.8695H43.8877C43.927 34.7906 43.9172 34.6231 43.8092 34.6033C43.6619 34.7315 43.22 34.5541 43.4262 35.0173C42.9451 34.7808 42.4148 35.3721 41.9239 35.0567C41.9828 35.1849 41.8748 35.2243 41.8355 35.313C41.4427 35.382 40.991 35.1947 40.7161 35.4608C40.6376 35.4115 40.775 35.2243 40.6179 35.2341C40.5295 35.3031 40.6474 35.4017 40.5394 35.4904C39.96 35.8551 39.2039 35.4904 38.6443 35.6875C37.682 36.1705 36.6019 36.3183 35.6592 36.6633L35.6396 36.5647C35.4334 37.0082 34.7755 36.4464 34.6969 37.0575C34.5889 36.9984 34.4023 37.1167 34.3925 36.9195C34.2256 37.2448 33.607 36.9393 33.3615 37.3828C33.4008 37.3828 33.4106 37.3532 33.4302 37.3039C32.9884 37.2448 32.7822 37.639 32.3305 37.6193C32.3501 37.5602 32.409 37.5109 32.3894 37.4123C32.1734 37.3039 32.2028 37.9347 31.9377 37.5405C31.8592 37.5799 31.9672 37.777 32.0163 37.7475C31.1227 37.9347 30.3863 38.6148 29.6891 39.1569C29.0018 39.2456 29.2571 38.5064 28.992 39.0583C28.9036 38.9992 29.0607 39.2259 29.0018 39.147C28.9134 39.3639 28.4715 38.8809 28.4912 39.1667C28.6974 39.3737 28.5108 39.3441 28.5992 39.492C28.1671 39.5511 27.9708 39.4131 27.8627 39.7581L27.7842 39.63C27.8235 40.1326 27.2049 40.3692 27.1852 40.9606C25.133 42.4488 23.1004 43.4246 20.9206 44.0751C18.7407 44.5482 16.5903 45.1001 14.2926 44.9424C13.7427 44.5679 13.7133 44.5876 13.1241 44.7355C13.1437 44.6763 13.183 44.6566 13.1437 44.5975C13.1143 44.9227 12.7313 44.627 12.6724 44.9326C11.828 44.8537 11.0326 44.8833 10.1391 44.7749C10.2863 44.765 10.3845 44.5088 10.2176 44.5088L10.0114 44.6862L9.99177 44.5975C9.87394 44.627 9.72665 44.765 9.82484 44.8833C8.67599 44.8636 7.54678 44.4891 6.47649 43.947C5.40619 43.4049 4.40463 42.6952 3.44235 41.8772C3.27542 41.6111 3.0103 41.3548 2.74518 41.0887C2.4997 40.8029 2.21495 40.5269 2.00874 40.2509C1.33122 38.2501 1.4785 36.614 1.30176 34.8596C1.30176 34.8596 2.12657 35.1651 2.2935 35.8255H2.33278Z" fill="#404040"/>
<path id="Vector_27" d="M59.4021 42.0547C59.5595 41.9955 59.6284 41.8081 59.8547 41.9363C59.7071 41.9659 59.5399 42.0646 59.4021 42.0547Z" fill="#404040"/>
<path id="Vector_28" d="M59.4119 36.9505C59.4119 36.9505 59.4119 36.8509 59.4319 36.821C59.4818 36.8708 59.6318 36.8409 59.5918 36.9406C59.5418 36.8907 59.4818 36.9406 59.4119 36.9605V36.9505Z" fill="#404040"/>
<path id="Vector_29" d="M58.6067 35.8157C58.7248 35.7269 59.02 35.8749 59.1577 35.9932L58.6067 35.8157Z" fill="#404040"/>
<path id="Vector_30" d="M58.0274 34.4852C58.0075 34.3175 58.0772 34.2879 58.2066 34.3865C58.1668 34.4556 58.0971 34.4457 58.0274 34.4852Z" fill="#404040"/>
<path id="Vector_31" d="M57.7536 34.6824C57.6639 34.6134 57.6739 34.5147 57.6839 34.4161C57.6142 34.5147 57.9328 34.5147 57.7536 34.6824Z" fill="#404040"/>
<path id="Vector_32" d="M55.527 32.8688C55.4573 32.8491 55.2781 32.8984 55.2781 32.7208C55.298 32.8491 55.6564 32.7011 55.527 32.8688Z" fill="#404040"/>
<path id="Vector_33" d="M54.2486 32.5928C54.2486 32.5928 54.2088 32.5336 54.149 32.5632C54.0993 32.4745 54.2088 32.4054 54.2785 32.4153L54.2586 32.6027L54.2486 32.5928Z" fill="#404040"/>
<path id="Vector_34" d="M33.0669 34.644L33.1669 34.5344L33.1969 34.6739L33.0669 34.644Z" fill="#404040"/>
<path id="Vector_35" d="M25.0279 39.1284C24.9779 39.2679 24.8879 39.0487 24.8679 39.0387C24.9479 38.9789 24.9279 39.2081 25.0279 39.1284Z" fill="#404040"/>
<path id="Vector_36" d="M20.9598 41.5519L20.9897 41.5421L21.0594 41.8281L20.9598 41.5519Z" fill="#404040"/>
</g>
<defs>
<clipPath id="clip0_563_14624">
<rect width="59.9758" height="44.9637" fill="white" transform="translate(0.359131 0.0181465)"/>
</clipPath>
</defs>
</svg>
